<?xml version="1.0" standalone="no"?>
<!DOCTYPE svg PUBLIC "-//W3C//DTD SVG 20010904//EN"
 "http://www.w3.org/TR/2001/REC-SVG-20010904/DTD/svg10.dtd">
<svg version="1.0" xmlns="http://www.w3.org/2000/svg"
 width="1820.000000pt" height="1024.000000pt" viewBox="0 0 1820.000000 1024.000000"
 preserveAspectRatio="xMidYMid meet">

<g transform="translate(0.000000,1024.000000) scale(0.100000,-0.100000)"
fill="#000000" stroke="none">
<path d="M9328 9212 l-58 -3 0 -282 0 -282 95 3 c352 13 625 -217 808 -683 19
-49 45 -127 58 -172 l22 -83 218 0 217 0 -15 68 c-102 451 -296 849 -534 1097
-113 117 -209 188 -342 250 -130 62 -185 74 -387 88 -14 1 -51 1 -82 -1z"/>
<path d="M16138 9212 l-28 -3 0 -270 c0 -249 1 -269 18 -270 167 -8 313 -101
410 -262 75 -125 141 -325 142 -429 l0 -38 200 0 200 0 0 34 c0 19 -7 86 -15
148 -38 288 -113 509 -239 703 -98 150 -218 260 -358 325 -90 42 -248 72 -330
62z"/>
<path d="M14330 8895 l0 -265 395 0 395 0 0 265 0 265 -395 0 -395 0 0 -265z"/>
<path d="M7610 6650 l0 -2500 95 0 95 0 0 2500 0 2500 -95 0 -95 0 0 -2500z"/>
<path d="M11780 8887 l0 -267 58 0 c129 0 259 -57 350 -154 94 -101 152 -233
188 -426 23 -123 26 -544 5 -660 -70 -382 -227 -570 -507 -603 l-94 -11 0
-258 0 -258 23 -1 c167 -7 337 38 468 122 237 154 407 488 476 939 22 144 25
595 5 735 -75 518 -276 880 -566 1020 -112 54 -187 74 -311 82 l-95 6 0 -266z"/>
<path d="M13162 6653 l3 -2498 93 -3 92 -3 0 2501 0 2500 -95 0 -95 0 2 -2497z"/>
<path d="M4026 9018 c-3 -13 -6 -44 -6 -70 0 -35 -4 -47 -17 -50 -9 -2 36 -18
99 -36 94 -27 134 -45 207 -93 58 -37 91 -65 91 -76 1 -51 -56 -326 -67 -330
-26 -10 -170 50 -273 114 -58 35 -99 59 -92 52 13 -14 15 -63 3 -94 -5 -13 0
-30 16 -53 12 -19 23 -42 23 -52 0 -24 -58 -220 -75 -253 -8 -15 -10 -25 -5
-22 15 9 0 -154 -17 -187 -27 -54 -3 -27 32 37 39 69 45 74 65 51 6 -8 18 -12
25 -9 19 6 55 -54 53 -87 -1 -15 45 -117 114 -253 l116 -228 -76 -134 c-43
-74 -81 -133 -87 -132 -5 2 -66 76 -135 165 -69 88 -128 161 -131 161 -3 1 -9
-45 -13 -101 -7 -93 -5 -104 13 -127 69 -89 174 -243 289 -424 97 -153 135
-222 143 -259 8 -37 8 -119 0 -302 -7 -138 -18 -431 -26 -651 -22 -630 -62
-930 -191 -1450 -80 -322 -81 -410 -9 -482 49 -49 116 -42 171 19 95 103 261
713 305 1117 20 186 1 528 -51 946 -27 212 -60 406 -121 715 -60 302 -63 376
-16 416 16 13 38 24 51 24 49 0 72 -50 127 -278 22 -92 63 -248 90 -347 65
-230 84 -264 108 -186 16 53 0 327 -45 791 -41 420 -41 529 -2 608 12 26 30
48 40 50 31 6 85 -55 107 -121 29 -86 34 -131 76 -652 20 -253 39 -488 42
-523 2 -35 7 -61 10 -58 3 2 9 101 14 218 10 244 64 1026 79 1137 6 41 18 88
28 105 34 58 103 60 143 5 31 -44 35 -130 15 -394 -33 -450 -56 -1085 -39
-1085 17 0 31 66 107 531 91 546 110 619 181 665 48 31 96 -14 111 -102 9 -60
-9 -224 -107 -954 -98 -728 -100 -762 -58 -860 41 -95 94 -105 187 -35 32 25
79 70 102 100 64 83 147 155 220 189 60 29 73 31 170 31 144 0 170 -14 390
-210 342 -306 368 -325 441 -325 35 0 48 6 80 39 35 35 39 44 39 90 0 63 -20
105 -98 202 -86 109 -175 186 -296 258 -59 35 -130 84 -157 109 -88 79 -217
254 -435 592 -132 204 -144 226 -223 425 -143 359 -192 451 -360 678 -39 53
-117 167 -174 254 -308 471 -607 791 -960 1026 -91 61 -324 187 -345 187 -5 0
-12 -10 -16 -22z m587 -407 c13 -5 26 -15 29 -23 7 -20 -18 -258 -28 -268 -14
-14 -81 7 -88 26 -8 22 14 246 27 262 11 14 27 15 60 3z m311 -263 c9 -40 96
-851 96 -889 0 -25 -5 -39 -17 -43 -36 -14 -45 16 -58 196 -13 173 -19 208
-37 208 -5 0 -16 16 -24 35 -11 26 -14 85 -14 256 0 193 2 225 17 241 21 24
32 23 37 -4z m-506 -158 c125 -12 237 -25 249 -30 14 -6 36 -36 55 -75 30 -60
35 -65 58 -60 14 3 33 0 43 -7 16 -12 17 -23 11 -81 l-7 -68 -40 3 c-39 3 -41
1 -73 -51 -18 -30 -39 -58 -47 -63 -13 -7 -443 25 -496 37 l-23 6 4 192 c3
184 8 217 29 217 5 0 111 -9 237 -20z m150 -606 c-2 -21 -15 -31 -73 -55 -38
-17 -76 -36 -83 -43 -9 -9 -24 -131 -49 -387 -19 -206 -39 -378 -44 -384 -28
-29 -27 27 7 375 19 201 39 379 45 396 13 43 33 59 115 93 86 37 86 37 82 5z
m850 -8 c12 -12 12 -34 2 -137 -6 -68 -16 -130 -22 -136 -12 -15 -56 -7 -77
12 -11 11 -12 33 -2 133 14 152 15 156 55 148 17 -4 37 -13 44 -20z m-828
-370 c0 -44 5 -67 15 -76 19 -16 45 -103 45 -153 0 -22 -5 -56 -11 -76 -9 -30
-8 -44 5 -75 22 -53 20 -75 -8 -87 -17 -8 -29 -8 -46 1 -20 11 -22 17 -17 62
5 38 3 50 -9 55 -41 15 -70 139 -53 222 9 46 8 58 -7 86 -16 31 -16 33 2 58
11 15 29 27 42 27 12 0 22 5 22 10 0 6 5 10 10 10 6 0 10 -28 10 -64z m1228
-414 c7 -9 10 -23 7 -31 -3 -8 -8 -75 -11 -150 -4 -102 -1 -154 10 -209 9 -40
16 -107 16 -148 0 -105 -49 -595 -61 -610 -12 -15 -207 35 -219 57 -9 16 43
580 60 647 6 24 24 72 41 107 19 40 33 93 40 146 6 46 14 91 18 99 4 8 5 26 1
40 -4 19 -13 26 -35 28 -51 5 -59 10 -44 28 9 11 23 14 46 11 18 -3 35 -1 39
5 9 14 76 0 92 -20z m228 -383 c32 -8 44 -16 44 -30 0 -9 9 -21 20 -24 16 -5
20 -15 20 -55 0 -67 -20 -253 -29 -262 -8 -9 -162 30 -178 45 -10 9 -9 42 2
152 8 77 15 143 15 148 0 4 11 7 25 7 16 0 25 6 25 15 0 18 0 18 56 4z m-1672
-461 c3 -13 21 -297 41 -632 36 -593 36 -654 7 -621 -5 6 -21 253 -36 550 -15
297 -30 582 -33 633 -4 65 -3 92 5 92 7 0 14 -10 16 -22z m1606 -33 c24 -21
265 -36 302 -18 31 15 55 9 63 -17 15 -46 -23 -69 -69 -41 -26 16 -54 20 -161
23 -71 2 -142 -1 -157 -5 -21 -7 -28 -5 -38 12 -23 43 23 79 60 46z m854 -310
c65 -71 86 -102 86 -122 -1 -39 -36 -113 -54 -113 -8 0 -53 42 -101 93 -80 86
-86 94 -82 127 7 50 35 110 51 110 8 0 53 -43 100 -95z m-2398 -1043 c23 -15
34 -53 34 -114 0 -75 -23 -130 -71 -174 -29 -26 -47 -66 -129 -292 -84 -233
-97 -262 -115 -260 -11 2 -21 12 -23 23 -1 11 40 139 93 283 85 234 95 270 95
330 0 90 15 139 55 179 34 34 43 38 61 25z"/>
<path d="M3961 8835 c-1 -22 16 -45 33 -45 5 0 3 6 -6 13 -9 6 -18 21 -21 32
-5 20 -5 20 -6 0z"/>
<path d="M4006 8783 c-3 -4 -6 -25 -6 -48 0 -24 -3 -56 -6 -73 -5 -27 -9 -30
-25 -22 -10 6 -21 10 -26 10 -4 -1 23 -17 61 -36 37 -19 69 -34 71 -32 2 2 10
38 18 81 l15 78 -48 24 c-26 13 -50 21 -54 18z"/>
<path d="M3870 7790 c-6 -11 -8 -20 -6 -20 3 0 10 9 16 20 6 11 8 20 6 20 -3
0 -10 -9 -16 -20z"/>
<path d="M16108 6713 l3 -298 87 -45 c107 -56 247 -146 301 -196 48 -42 138
-175 170 -248 59 -137 87 -358 70 -563 -25 -319 -149 -561 -334 -660 -78 -41
-126 -53 -219 -55 l-76 -1 0 -267 0 -268 43 -6 c60 -9 189 10 275 40 198 71
387 263 507 516 142 300 202 706 165 1113 -21 227 -62 391 -140 550 -126 261
-276 394 -671 595 -97 49 -179 90 -181 90 -1 0 -2 -134 0 -297z"/>
<path d="M14423 6943 l-93 -4 0 -259 0 -260 118 0 c64 0 215 -3 335 -7 l217
-6 0 271 0 272 -242 -2 c-134 -1 -285 -4 -335 -5z"/>
<path d="M2275 6676 c-547 -88 -1016 -663 -1260 -1544 -54 -198 -90 -386 -132
-692 -26 -192 -26 -827 0 -1042 98 -814 374 -1488 771 -1884 168 -167 344
-274 524 -320 102 -26 243 -41 286 -30 l26 6 0 233 c-1 232 -1 232 -18 182
l-17 -50 -45 0 -45 0 -22 67 c-51 152 -111 529 -148 934 l-7 71 63 6 c34 4
102 7 150 7 l89 0 0 136 0 137 -159 -5 -159 -5 -6 86 c-8 112 -16 377 -19 621
l-2 195 173 3 172 2 0 135 0 135 -176 0 -176 0 6 183 c3 100 8 274 11 387 3
113 8 222 11 242 l6 37 159 -6 159 -6 0 131 c0 116 2 131 18 135 9 3 -17 5
-59 6 -42 0 -117 4 -167 7 l-92 7 0 44 c0 63 36 407 60 569 27 184 65 370 93
452 l22 67 45 0 45 0 17 -50 c17 -50 17 -50 18 183 0 127 -1 232 -2 232 -61 8
-151 6 -213 -4z m-95 -424 c0 -5 -11 -60 -25 -123 -41 -182 -81 -492 -111
-841 -8 -91 -2 -89 -134 -58 -120 29 -180 50 -180 63 0 27 72 281 111 392 76
217 155 369 260 500 56 69 79 89 79 67z m-411 -288 c-53 -132 -114 -321 -154
-476 l-37 -146 -47 20 c-67 28 -151 78 -151 89 0 38 167 317 253 424 49 60
160 176 164 171 2 -2 -11 -39 -28 -82z m-420 -798 c31 -19 84 -48 117 -64 l61
-31 -13 -83 c-33 -208 -61 -525 -77 -873 l-2 -50 -180 0 -180 0 2 90 c6 276
74 664 166 948 17 53 35 97 40 97 5 0 35 -15 66 -34z m448 -185 c59 -17 134
-35 167 -41 l58 -12 -6 -91 c-5 -68 -25 -662 -26 -764 0 -10 -47 -13 -200 -13
l-200 0 0 53 c0 155 36 575 65 771 8 55 15 105 15 113 0 18 4 17 127 -16z
m-355 -1351 c9 -220 25 -405 54 -630 14 -107 28 -214 31 -236 l5 -41 -118 -62
c-87 -45 -120 -58 -126 -48 -11 17 -83 246 -107 342 -59 237 -130 786 -106
824 4 8 62 11 183 9 l177 -3 7 -155z m548 143 c1 -83 21 -667 26 -774 l7 -136
-64 -12 c-67 -13 -232 -55 -260 -66 -14 -5 -19 10 -33 102 -42 267 -89 845
-73 887 6 14 34 16 202 16 179 0 195 -1 195 -17z m54 -1215 c3 -18 12 -114 21
-213 21 -226 56 -470 90 -626 15 -67 24 -124 20 -127 -20 -20 -172 197 -240
341 -70 150 -158 406 -189 553 l-7 31 103 27 c92 24 170 42 190 45 4 1 9 -14
12 -31z m-417 -243 c39 -148 89 -302 139 -424 19 -46 33 -85 31 -88 -11 -10
-177 184 -246 287 -77 116 -160 265 -151 273 16 15 167 86 179 84 9 -1 26 -48
48 -132z"/>
<path d="M10375 5602 l-120 -3 -48 -147 c-56 -174 -105 -280 -183 -399 -113
-174 -258 -295 -417 -350 -73 -25 -96 -28 -209 -28 l-128 0 0 -277 0 -277 56
-7 c30 -3 96 -3 147 1 314 24 593 200 820 516 95 133 222 390 285 579 50 152
98 321 104 370 l3 25 -95 0 c-52 0 -149 -1 -215 -3z"/>
<path d="M6254 5265 c3 -11 -5 -132 -18 -270 l-23 -250 105 -165 c254 -398
320 -486 515 -677 134 -133 151 -141 201 -102 40 31 56 71 56 137 0 107 -29
172 -183 413 -78 123 -194 296 -257 384 -210 294 -352 485 -361 485 -5 0 -8 3
-7 8 2 4 -5 18 -16 32 -14 20 -17 21 -12 5z m237 -407 c30 -35 60 -71 68 -81
7 -9 17 -51 21 -92 7 -74 8 -75 77 -157 176 -210 185 -225 161 -275 -25 -52
-43 -36 -157 132 -101 149 -111 160 -137 157 -57 -5 -71 6 -127 97 -31 49 -57
97 -59 107 -7 38 23 22 68 -35 26 -34 49 -61 51 -61 10 0 -12 47 -43 95 -38
61 -53 105 -34 105 7 0 37 -26 66 -57 66 -71 70 -54 9 31 -78 110 -51 134 36
34z"/>
<path d="M14653 4682 l-323 -2 0 -259 c0 -258 0 -259 22 -264 12 -4 190 -6
395 -7 l373 0 0 269 0 270 -72 -2 c-40 -1 -218 -3 -395 -5z"/>
<path d="M6176 4313 c-3 -16 -10 -95 -16 -178 -6 -82 -15 -162 -20 -176 -7
-23 15 -71 156 -338 123 -232 162 -316 156 -328 -12 -21 -4 -33 -182 295 -78
144 -143 262 -145 262 -17 0 12 -60 182 -382 86 -163 112 -221 105 -234 -11
-20 -11 -21 -157 251 -59 110 -115 209 -123 220 -30 42 -2 -34 79 -213 299
-658 291 -642 349 -642 26 0 78 46 99 89 68 135 13 320 -306 1036 -47 105 -88
194 -92 198 -8 8 -61 -177 -61 -213 0 -12 68 -150 151 -307 134 -253 159 -313
132 -313 -14 0 -314 567 -320 605 -4 27 5 74 32 169 l38 132 -22 47 c-12 26
-23 47 -25 47 -3 0 -7 -12 -10 -27z"/>
<path d="M9331 3301 c-31 -57 5 -151 47 -125 27 17 39 81 21 112 -18 34 -54
40 -68 13z"/>
<path d="M11941 3307 c-44 -22 -65 -62 -69 -132 -3 -47 -8 -65 -20 -67 -22 -4
-21 -102 2 -106 14 -3 16 -26 16 -208 l0 -204 35 0 35 0 0 205 0 205 25 0 c24
0 25 3 25 55 0 53 -1 55 -26 55 -25 0 -26 2 -21 38 4 20 16 44 27 54 15 12 20
28 20 67 0 55 -7 60 -49 38z"/>
<path d="M16132 3308 c-15 -15 -16 -92 -2 -119 17 -31 49 -24 66 16 29 70 -19
148 -64 103z"/>
<path d="M10510 2935 l0 -345 35 0 35 0 0 345 0 345 -35 0 -35 0 0 -345z"/>
<path d="M15130 2935 l0 -345 40 0 40 0 0 345 0 345 -40 0 -40 0 0 -345z"/>
<path d="M10850 3202 c-57 -59 -80 -125 -87 -248 -10 -159 41 -309 116 -348
43 -23 102 -20 141 7 38 25 78 94 87 150 l6 37 -42 0 c-35 0 -41 -3 -47 -25
-10 -38 -62 -78 -93 -70 -60 14 -93 93 -92 220 0 126 41 205 107 205 33 0 66
-29 79 -71 5 -15 16 -19 50 -19 l43 0 -10 38 c-16 59 -44 107 -83 140 -29 26
-44 32 -82 32 -43 0 -51 -4 -93 -48z"/>
<path d="M7190 2915 l0 -325 35 0 35 0 0 325 0 325 -35 0 -35 0 0 -325z"/>
<path d="M7697 3234 c-4 -4 -7 -34 -7 -66 0 -45 -3 -58 -15 -58 -12 0 -15 -13
-15 -55 0 -42 3 -55 15 -55 13 0 15 -22 15 -135 0 -214 23 -275 106 -275 l34
0 0 54 c0 52 -1 55 -27 58 l-28 3 -3 148 -3 147 31 0 c30 0 30 0 30 55 0 54 0
55 -30 55 -29 0 -29 1 -32 63 -3 61 -3 62 -33 65 -17 2 -34 0 -38 -4z"/>
<path d="M9137 3234 c-4 -4 -7 -34 -7 -66 0 -45 -3 -58 -15 -58 -12 0 -15 -13
-15 -55 0 -42 3 -55 15 -55 13 0 15 -22 15 -135 0 -214 23 -275 106 -275 l34
0 0 54 c0 52 -1 55 -27 58 l-28 3 -3 148 -3 147 31 0 c30 0 30 0 30 55 0 54 0
55 -30 55 -29 0 -29 1 -32 63 -3 61 -3 62 -33 65 -17 2 -34 0 -38 -4z"/>
<path d="M14812 2918 l3 -323 38 -3 37 -3 0 125 0 126 44 0 c90 0 144 73 145
195 1 82 -15 133 -54 172 -32 32 -34 33 -124 33 l-91 0 2 -322z m158 212 c26
-14 41 -76 30 -124 -10 -46 -23 -56 -72 -56 l-38 0 0 95 0 95 31 0 c17 0 39
-5 49 -10z"/>
<path d="M15930 3176 c0 -52 -3 -66 -15 -66 -12 0 -15 -13 -15 -55 0 -42 3
-55 15 -55 13 0 15 -23 15 -147 0 -82 5 -165 10 -185 13 -46 52 -78 96 -78
l34 0 0 54 c0 52 -1 55 -27 58 l-28 3 -3 148 -3 147 31 0 c30 0 30 0 30 55 0
54 0 55 -30 55 -29 0 -29 1 -32 63 l-3 62 -37 3 -38 3 0 -65z"/>
<path d="M7465 3109 c-11 -7 -28 -21 -37 -33 l-18 -21 0 28 c0 26 -2 28 -37
25 l-38 -3 0 -255 0 -255 37 -3 37 -3 3 184 c3 165 5 187 22 206 27 29 62 27
83 -6 15 -23 19 -55 21 -205 l4 -178 34 0 34 0 0 188 c0 205 -11 271 -52 309
-29 27 -67 36 -93 22z"/>
<path d="M7974 3110 c-33 -13 -72 -67 -89 -122 -20 -67 -19 -209 0 -276 51
-171 207 -171 253 1 l10 37 -37 0 c-30 0 -42 -6 -60 -31 -15 -20 -29 -29 -43
-27 -26 4 -54 42 -63 86 l-7 32 106 0 c124 0 123 -1 107 113 -21 145 -93 221
-177 187z m71 -117 c18 -18 35 -56 35 -79 0 -11 -16 -14 -71 -14 -61 0 -70 2
-65 16 3 9 6 21 6 28 0 22 40 66 60 66 10 0 26 -7 35 -17z"/>
<path d="M8344 3110 c-12 -4 -31 -21 -42 -37 l-21 -28 -1 33 c0 30 -2 32 -35
32 l-35 0 0 -260 0 -260 35 0 35 0 1 153 c0 180 9 218 57 232 l32 9 0 68 c0
37 -1 68 -2 67 -2 0 -12 -4 -24 -9z"/>
<path d="M8525 3089 l-35 -31 0 26 c0 23 -4 26 -35 26 l-35 0 0 -260 0 -260
34 0 34 0 4 178 c3 202 12 232 68 232 52 0 60 -33 60 -235 l0 -175 41 0 41 0
-4 203 c-3 187 -5 206 -27 250 -22 46 -61 77 -95 77 -8 0 -31 -14 -51 -31z"/>
<path d="M8834 3101 c-19 -12 -40 -39 -55 -72 -21 -48 -24 -68 -24 -179 0
-117 2 -129 28 -183 46 -94 108 -110 168 -44 l29 31 0 -32 c0 -30 2 -32 35
-32 l35 0 0 260 0 260 -35 0 c-33 0 -35 -2 -35 -32 l-1 -33 -22 26 c-23 28
-57 49 -79 49 -7 0 -27 -9 -44 -19z m101 -118 c27 -26 37 -64 38 -133 0 -138
-80 -202 -129 -102 -35 71 -17 227 28 245 25 10 47 7 63 -10z"/>
<path d="M9565 3110 c-31 -12 -62 -50 -87 -105 -29 -66 -32 -223 -5 -301 51
-147 174 -162 242 -29 28 55 30 65 30 174 0 105 -3 121 -27 173 -37 80 -94
113 -153 88z m88 -148 c27 -46 27 -164 1 -218 -17 -34 -23 -39 -53 -39 -28 0
-37 6 -52 35 -21 38 -26 159 -10 203 25 65 82 75 114 19z"/>
<path d="M9924 3101 c-18 -11 -34 -25 -37 -33 -3 -7 -6 0 -6 15 -1 26 -3 28
-38 25 l-38 -3 0 -255 0 -255 38 -3 37 -3 0 171 c0 201 10 240 59 240 57 0 66
-29 69 -232 l4 -178 34 0 34 0 0 188 c0 137 -4 202 -15 238 -25 86 -84 121
-141 85z"/>
<path d="M10216 3099 c-64 -51 -98 -186 -78 -319 25 -175 114 -248 195 -160
l27 30 0 -30 c0 -28 3 -30 35 -30 l35 0 0 260 0 260 -35 0 c-32 0 -35 -3 -35
-29 l0 -29 -34 34 c-39 39 -72 43 -110 13z m118 -132 c18 -24 21 -43 21 -117
0 -74 -3 -93 -21 -117 -28 -38 -69 -38 -97 -1 -23 30 -34 122 -23 182 16 82
78 110 120 53z"/>
<path d="M11263 3104 c-69 -34 -109 -154 -100 -293 14 -193 123 -286 223 -190
111 108 90 426 -33 484 -39 19 -50 19 -90 -1z m82 -121 c26 -26 35 -59 35
-135 0 -107 -39 -166 -95 -144 -46 17 -62 208 -22 269 20 31 57 36 82 10z"/>
<path d="M11644 3110 c-12 -5 -29 -19 -38 -32 l-16 -22 0 27 c0 25 -3 27 -40
27 l-40 0 0 -260 0 -260 40 0 40 0 0 175 c0 202 8 235 60 235 56 0 65 -30 68
-232 l4 -178 34 0 34 0 0 186 c0 102 -5 205 -11 229 -20 79 -82 127 -135 105z"/>
<path d="M12113 3101 c-93 -58 -121 -295 -53 -437 55 -112 167 -107 221 11 29
63 26 75 -20 75 -31 0 -41 -4 -46 -20 -8 -26 -40 -43 -66 -35 -22 7 -49 60
-49 95 0 19 6 20 106 20 l107 0 -5 83 c-9 131 -55 212 -129 223 -24 3 -44 -1
-66 -15z m96 -117 c12 -15 21 -40 21 -55 0 -29 0 -29 -65 -29 -71 0 -74 4 -55
57 22 57 66 69 99 27z"/>
<path d="M12475 3087 l-35 -35 0 30 c0 28 -2 29 -37 26 l-38 -3 0 -255 0 -255
38 -3 37 -3 0 163 c0 183 7 208 58 223 32 9 32 10 32 71 0 35 -5 66 -10 69 -6
4 -26 -9 -45 -28z"/>
<path d="M12664 3110 c-33 -13 -72 -67 -89 -122 -20 -67 -19 -209 0 -276 51
-171 207 -171 253 1 l10 37 -37 0 c-30 0 -42 -6 -60 -31 -15 -20 -29 -29 -43
-27 -26 4 -56 43 -64 86 l-6 32 105 0 c123 0 122 -1 107 112 -18 144 -91 222
-176 188z m74 -123 c12 -13 25 -37 28 -55 l7 -32 -72 0 c-39 0 -71 4 -71 9 0
18 21 66 37 83 22 24 45 22 71 -5z"/>
<path d="M13040 3113 c-8 -3 -27 -17 -42 -31 l-28 -26 0 27 c0 24 -4 27 -35
27 l-35 0 0 -260 0 -260 34 0 34 0 4 178 c3 202 12 232 68 232 52 0 60 -33 60
-235 l0 -175 41 0 41 0 -4 203 c-3 187 -5 206 -27 250 -28 58 -70 85 -111 70z"/>
<path d="M13334 3110 c-64 -25 -104 -127 -104 -260 0 -107 21 -180 65 -228 67
-73 156 -37 195 79 10 29 16 57 14 61 -3 5 -21 8 -39 8 -30 0 -37 -5 -49 -35
-12 -29 -20 -35 -45 -35 -24 0 -34 7 -47 32 -38 74 -25 234 21 264 31 20 59 6
74 -36 9 -28 14 -31 48 -28 34 3 38 6 35 28 -2 14 -15 49 -29 79 -33 68 -83
94 -139 71z"/>
<path d="M13633 3101 c-93 -58 -121 -295 -53 -437 55 -112 167 -107 221 11 29
63 26 75 -20 75 -31 0 -41 -4 -46 -20 -8 -26 -40 -43 -66 -35 -22 7 -49 60
-49 95 0 19 6 20 106 20 l107 0 -5 83 c-9 131 -55 212 -129 223 -24 3 -44 -1
-66 -15z m96 -117 c12 -15 21 -40 21 -55 0 -29 0 -29 -65 -29 -71 0 -74 4 -55
57 22 57 66 69 99 27z"/>
<path d="M14095 3105 c-82 -41 -125 -206 -94 -357 31 -151 134 -210 217 -125
109 112 88 424 -32 481 -42 20 -53 20 -91 1z m80 -122 c26 -26 35 -59 35 -135
0 -107 -39 -166 -95 -144 -46 17 -62 208 -22 269 20 31 57 36 82 10z"/>
<path d="M14474 3110 c-12 -5 -29 -19 -38 -32 l-16 -22 0 27 c0 25 -3 27 -40
27 l-40 0 0 -260 0 -260 40 0 40 0 0 175 c0 202 8 235 60 235 55 0 64 -30 69
-232 l3 -178 35 0 35 0 -4 208 c-3 189 -5 210 -25 248 -12 22 -28 45 -35 51
-20 17 -60 23 -84 13z"/>
<path d="M15337 3090 c-52 -46 -72 -111 -72 -240 0 -129 20 -194 72 -240 45
-40 85 -36 126 12 l27 32 0 -32 c0 -30 2 -32 35 -32 l35 0 0 260 0 260 -35 0
c-33 0 -35 -2 -35 -32 l0 -32 -27 32 c-41 48 -81 52 -126 12z m128 -130 c29
-50 29 -171 -1 -220 -16 -27 -27 -35 -49 -35 -22 0 -35 8 -53 35 -21 31 -23
44 -20 122 3 76 6 90 28 113 33 36 68 30 95 -15z"/>
<path d="M15700 3108 c-46 -24 -70 -74 -70 -145 0 -86 17 -115 90 -154 42 -22
62 -39 67 -57 8 -34 -9 -57 -43 -57 -21 0 -32 7 -42 28 -11 22 -20 27 -48 27
-29 0 -34 -3 -34 -22 1 -65 71 -148 125 -148 67 0 122 87 113 181 -6 63 -30
96 -99 134 -51 29 -54 33 -54 70 0 38 2 40 30 40 23 0 33 -7 43 -27 11 -23 20
-28 48 -28 39 0 39 0 19 66 -24 81 -88 121 -145 92z"/>
<path d="M16342 3100 c-22 -14 -43 -40 -60 -78 -24 -51 -27 -68 -27 -172 0
-104 3 -121 27 -172 27 -59 73 -98 113 -98 56 0 113 70 131 159 6 30 6 31 -32
31 -34 0 -41 -5 -54 -33 -19 -40 -57 -48 -86 -16 -16 18 -19 36 -19 131 0 108
0 110 28 134 23 20 32 22 49 13 11 -6 25 -24 31 -40 10 -25 17 -29 50 -29 l39
0 -7 37 c-10 57 -42 112 -78 133 -41 25 -64 25 -105 0z"/>
<path d="M16655 3111 c-77 -34 -106 -172 -52 -254 8 -12 40 -35 71 -51 61 -31
76 -58 56 -96 -16 -31 -61 -24 -78 13 -11 22 -20 27 -48 27 -29 0 -34 -3 -34
-22 1 -65 71 -148 125 -148 67 0 122 87 113 181 -6 63 -30 96 -99 134 -51 29
-54 33 -54 70 0 38 2 40 30 40 23 0 33 -7 43 -27 11 -23 20 -28 48 -28 38 0
38 3 13 86 -18 59 -85 96 -134 75z"/>
<path d="M9330 2850 l0 -260 35 0 35 0 0 260 0 260 -35 0 -35 0 0 -260z"/>
<path d="M16120 2850 l0 -260 40 0 40 0 0 260 0 260 -40 0 -40 0 0 -260z"/>
<path d="M6042 2815 c0 -16 2 -22 5 -12 2 9 2 23 0 30 -3 6 -5 -1 -5 -18z"/>
<path d="M6032 2710 c0 -14 2 -19 5 -12 2 6 2 18 0 25 -3 6 -5 1 -5 -13z"/>
<path d="M16877 2723 c-3 -5 -10 -51 -16 -103 -7 -52 -14 -107 -17 -122 -5
-25 -2 -28 19 -28 24 0 27 6 52 113 14 61 28 120 31 130 4 14 -1 17 -30 17
-19 0 -37 -3 -39 -7z"/>
<path d="M8390 2181 c-5 -11 -10 -36 -10 -56 0 -20 5 -45 10 -56 24 -44 80 -5
80 56 0 61 -56 100 -80 56z"/>
<path d="M11100 2181 c-14 -27 -13 -94 3 -115 17 -24 48 -17 65 14 14 28 10
84 -9 106 -16 20 -47 17 -59 -5z"/>
<path d="M15701 2186 c-19 -22 -23 -78 -9 -106 17 -31 48 -38 65 -14 16 21 17
88 3 115 -12 22 -43 25 -59 5z"/>
<path d="M16900 2181 c-5 -11 -10 -36 -10 -56 0 -66 38 -98 70 -60 18 21 18
98 1 118 -18 23 -48 21 -61 -2z"/>
<path d="M17190 2181 c-14 -27 -13 -94 3 -115 17 -24 48 -17 65 14 14 28 10
84 -9 106 -16 20 -47 17 -59 -5z"/>
<path d="M13910 1815 l0 -345 35 0 35 0 0 345 0 345 -35 0 -35 0 0 -345z"/>
<path d="M16540 1815 l0 -345 35 0 c32 0 35 2 35 31 l0 30 34 -35 c100 -106
209 48 193 272 -14 199 -115 289 -204 184 l-23 -27 0 118 0 117 -35 0 -35 0 0
-345z m182 48 c31 -35 40 -66 40 -133 0 -106 -41 -168 -96 -147 -29 11 -50 70
-51 137 0 78 7 108 35 138 25 26 51 28 72 5z"/>
<path d="M17040 1815 l0 -345 35 0 35 0 0 345 0 345 -35 0 -35 0 0 -345z"/>
<path d="M9730 2128 c-56 -29 -85 -141 -58 -229 9 -33 9 -42 -5 -57 -56 -62
-76 -214 -38 -298 44 -97 132 -112 212 -37 l27 25 18 -31 c16 -27 24 -31 61
-31 24 0 43 3 43 6 0 3 -19 37 -41 77 l-42 71 27 81 c14 45 26 87 26 93 0 7
-15 12 -35 12 -30 0 -37 -5 -45 -27 -25 -69 -23 -70 -79 30 -29 53 -57 112
-63 131 -21 68 31 121 55 56 9 -25 17 -30 44 -30 28 0 33 4 33 23 0 96 -74
168 -140 135z m49 -435 l44 -77 -27 -23 c-59 -50 -116 -14 -116 72 0 42 26
105 44 105 6 0 31 -35 55 -77z"/>
<path d="M14225 2097 c-59 -59 -71 -206 -22 -279 12 -17 46 -46 76 -63 66 -39
81 -58 81 -105 0 -93 -89 -109 -107 -19 -5 26 -9 29 -46 29 l-40 0 7 -42 c22
-141 133 -201 213 -115 56 62 67 201 22 276 -10 17 -40 44 -66 59 -73 42 -93
65 -93 110 0 80 59 99 93 30 16 -33 23 -38 53 -38 32 0 34 2 34 33 0 17 -9 50
-19 73 -40 89 -125 112 -186 51z"/>
<path d="M6340 1795 l0 -325 40 0 40 0 0 325 0 325 -40 0 -40 0 0 -325z"/>
<path d="M8200 2056 c0 -59 -2 -66 -20 -66 -18 0 -20 -7 -20 -54 0 -45 3 -54
20 -59 19 -5 20 -14 20 -167 0 -203 15 -240 99 -240 31 0 31 0 31 55 0 51 -2
55 -24 55 -13 0 -27 7 -30 16 -3 9 -6 76 -6 150 l0 134 30 0 c30 0 30 1 30 55
0 54 0 55 -30 55 -29 0 -29 1 -32 63 -3 62 -3 62 -35 65 l-33 3 0 -65z"/>
<path d="M10160 1795 l0 -325 106 0 105 0 -3 53 -3 52 -67 3 -68 3 0 84 0 85
60 0 60 0 0 50 0 50 -60 0 -60 0 0 85 0 85 70 0 70 0 0 50 0 50 -105 0 -105 0
0 -325z"/>
<path d="M13367 2114 c-4 -4 -7 -34 -7 -66 0 -45 -3 -58 -15 -58 -12 0 -15
-13 -15 -55 0 -42 3 -55 15 -55 13 0 15 -23 15 -142 0 -79 4 -160 9 -181 13
-56 46 -87 93 -87 l38 0 0 54 c0 52 -1 55 -27 58 l-28 3 -3 148 -3 147 31 0
c30 0 30 0 30 55 0 54 0 55 -30 55 -29 0 -29 1 -32 63 -3 61 -3 62 -33 65 -17
2 -34 0 -38 -4z"/>
<path d="M15147 2114 c-4 -4 -7 -34 -7 -66 0 -45 -3 -58 -15 -58 -12 0 -15
-13 -15 -55 0 -42 3 -55 15 -55 13 0 15 -22 15 -137 1 -213 23 -273 102 -273
l38 0 0 54 c0 52 -1 55 -27 58 l-28 3 -3 148 -3 147 31 0 c30 0 30 0 30 55 0
54 0 55 -30 55 -29 0 -29 1 -32 63 -3 61 -3 62 -33 65 -17 2 -34 0 -38 -4z"/>
<path d="M17347 2114 c-4 -4 -7 -34 -7 -66 0 -45 -3 -58 -15 -58 -12 0 -15
-13 -15 -55 0 -42 3 -55 15 -55 13 0 15 -23 15 -142 0 -79 4 -160 9 -181 13
-56 46 -87 93 -87 l38 0 0 54 c0 52 -1 55 -27 58 l-28 3 -3 148 -3 147 31 0
c30 0 30 0 30 55 0 54 0 55 -30 55 -29 0 -29 1 -32 63 -3 61 -3 62 -33 65 -17
2 -34 0 -38 -4z"/>
<path d="M6970 1988 c-14 -5 -33 -19 -42 -31 l-18 -22 0 28 c0 26 -2 28 -37
25 l-38 -3 -3 -257 -2 -258 39 0 40 0 3 184 c3 164 5 186 22 205 27 29 62 27
83 -6 15 -23 19 -55 21 -205 l4 -178 35 0 34 0 -3 208 c-3 199 -4 209 -28 251
-29 51 -71 74 -110 59z"/>
<path d="M7280 1989 c-86 -35 -136 -180 -113 -328 33 -214 177 -272 259 -104
27 54 29 67 29 173 0 105 -2 120 -28 172 -38 77 -92 109 -147 87z m60 -119
c44 -23 59 -175 24 -247 -17 -33 -23 -38 -54 -38 -30 0 -37 5 -52 35 -21 41
-25 168 -7 203 28 54 52 67 89 47z"/>
<path d="M7915 1990 c-57 -23 -94 -103 -102 -222 -16 -224 93 -378 193 -272
l34 35 0 -30 c0 -29 3 -31 35 -31 l35 0 0 260 0 260 -35 0 c-33 0 -35 -2 -35
-32 l0 -33 -23 27 c-21 25 -57 49 -74 47 -4 0 -17 -4 -28 -9z m74 -120 c29
-15 46 -70 46 -145 -1 -72 -21 -130 -51 -142 -28 -11 -62 7 -78 41 -19 40 -22
166 -5 199 28 54 52 67 88 47z"/>
<path d="M8624 1986 c-33 -15 -67 -55 -84 -101 -34 -89 -29 -259 9 -334 26
-50 75 -91 110 -91 42 0 92 39 120 95 24 45 26 60 26 175 0 114 -2 129 -25
174 -41 78 -97 108 -156 82z m86 -138 c27 -44 35 -113 22 -177 -14 -65 -35
-91 -74 -91 -24 0 -32 7 -48 43 -21 46 -26 131 -10 186 21 75 76 95 110 39z"/>
<path d="M9010 1992 c-8 -2 -27 -16 -42 -30 l-28 -26 0 27 c0 24 -4 27 -35 27
l-35 0 0 -260 0 -260 35 0 35 0 0 168 c0 139 3 173 18 202 14 28 23 35 47 35
24 0 33 -7 47 -35 15 -29 18 -63 18 -202 l0 -168 35 0 35 0 0 193 c0 105 -5
209 -10 229 -19 68 -74 114 -120 100z"/>
<path d="M9280 1987 c-55 -28 -88 -115 -71 -190 13 -54 36 -84 84 -108 80 -40
96 -70 57 -109 -24 -24 -54 -14 -72 26 -9 18 -19 24 -45 24 -28 0 -33 -4 -33
-22 1 -32 33 -99 60 -123 29 -26 100 -27 129 -1 34 31 55 99 48 158 -8 66 -29
95 -98 133 -51 29 -54 33 -54 70 0 37 2 40 29 40 28 0 38 -10 50 -48 4 -14 14
-17 38 -15 31 3 33 5 30 38 -10 99 -85 162 -152 127z"/>
<path d="M10569 1988 c-13 -5 -32 -19 -41 -31 l-18 -22 0 28 c0 26 -2 28 -37
25 l-38 -3 0 -255 0 -255 37 -3 37 -3 3 184 c3 165 5 187 22 206 27 29 62 27
83 -6 15 -23 19 -55 21 -205 l4 -178 34 0 34 0 0 188 c0 199 -8 248 -46 298
-25 35 -58 45 -95 32z"/>
<path d="M11544 1986 c-81 -36 -127 -184 -104 -333 33 -204 177 -258 259 -98
24 46 26 61 26 170 0 109 -2 125 -27 177 -38 81 -93 111 -154 84z m90 -146
c16 -27 21 -53 21 -110 0 -95 -24 -143 -73 -148 -30 -3 -34 1 -52 40 -22 48
-27 149 -9 195 27 72 79 83 113 23z"/>
<path d="M11930 1992 c-8 -2 -27 -16 -42 -30 l-28 -26 0 27 c0 24 -4 27 -35
27 l-35 0 0 -260 0 -260 34 0 34 0 4 184 c3 166 5 186 22 205 29 32 67 24 88
-19 15 -29 18 -63 18 -202 l0 -168 35 0 35 0 0 193 c0 149 -4 204 -16 239 -22
65 -70 104 -114 90z"/>
<path d="M12464 1985 c-17 -7 -40 -27 -51 -45 l-21 -33 -16 31 c-20 38 -44 52
-90 52 -25 0 -40 -7 -55 -25 l-20 -26 -3 23 c-2 19 -10 24 -40 26 l-38 3 0
-260 0 -261 40 0 40 0 0 179 c0 174 1 181 23 207 18 21 29 26 49 21 43 -11 52
-47 56 -234 l4 -173 34 0 34 0 0 168 c0 139 3 173 18 202 23 47 63 53 89 14
15 -24 18 -55 21 -206 l4 -178 34 0 34 0 0 188 c0 106 -5 204 -11 227 -24 85
-77 124 -135 100z"/>
<path d="M12785 1993 c-111 -26 -160 -292 -83 -451 52 -108 158 -108 212 0 37
74 35 88 -14 88 -27 0 -40 -4 -40 -13 0 -25 -37 -50 -63 -43 -26 6 -57 58 -57
95 0 20 5 21 105 21 l105 0 0 63 c0 151 -75 260 -165 240z m60 -128 c14 -13
25 -31 25 -39 0 -8 3 -21 6 -30 5 -14 -4 -16 -65 -16 -39 0 -71 4 -71 9 0 18
21 66 37 83 22 24 39 23 68 -7z"/>
<path d="M13150 1992 c-8 -2 -27 -16 -42 -30 l-28 -26 0 27 c0 24 -4 27 -35
27 l-35 0 0 -260 0 -260 35 0 35 0 0 168 c0 139 3 173 18 202 14 28 23 35 47
35 24 0 33 -7 47 -35 15 -29 18 -63 18 -202 l0 -168 35 0 35 0 0 193 c0 149
-4 204 -16 239 -22 65 -70 104 -114 90z"/>
<path d="M13632 1985 c-25 -11 -40 -29 -60 -72 -25 -54 -27 -67 -27 -188 0
-116 3 -135 24 -178 26 -52 63 -87 93 -87 28 0 74 26 83 47 7 16 9 15 14 -7 6
-20 14 -26 44 -28 l37 -3 0 261 0 261 -37 -3 c-33 -3 -38 -7 -41 -30 l-3 -27
-27 29 c-34 36 -59 43 -100 25z m105 -144 c19 -28 23 -47 23 -108 0 -87 -20
-140 -56 -149 -34 -9 -51 0 -69 37 -36 69 -28 196 16 240 28 28 59 20 86 -20z"/>
<path d="M14910 1983 c-46 -23 -70 -73 -70 -143 0 -78 24 -118 94 -155 58 -30
74 -54 62 -93 -14 -42 -86 -26 -86 19 0 16 -7 19 -41 19 -41 0 -41 0 -35 -31
23 -114 112 -172 181 -117 37 29 55 76 55 141 0 70 -28 112 -98 150 -36 20
-54 36 -58 54 -16 61 50 83 76 26 12 -25 21 -33 43 -33 15 0 30 6 33 14 9 24
-16 95 -44 126 -35 38 -68 45 -112 23z"/>
<path d="M15412 1985 c-53 -23 -85 -105 -90 -229 -6 -124 15 -211 63 -262 45
-47 82 -46 130 3 l35 36 0 -31 c0 -30 2 -32 35 -32 l35 0 0 260 0 260 -35 0
c-33 0 -35 -2 -35 -32 l0 -32 -32 31 c-42 39 -65 45 -106 28z m90 -122 c31
-35 40 -66 40 -133 0 -106 -41 -168 -96 -147 -65 25 -68 265 -4 290 25 10 45
7 60 -10z"/>
<path d="M15980 1992 c-8 -2 -27 -16 -42 -30 l-28 -26 0 27 c0 24 -4 27 -35
27 l-35 0 0 -260 0 -260 35 0 35 0 0 168 c0 139 3 173 18 202 14 28 23 35 47
35 24 0 33 -7 47 -35 15 -29 18 -63 18 -202 l0 -168 35 0 35 0 0 193 c0 105
-5 209 -10 229 -19 68 -74 114 -120 100z"/>
<path d="M16252 1980 c-111 -68 -118 -405 -10 -495 41 -34 73 -32 114 9 l34
34 0 -29 c0 -27 3 -29 40 -29 l40 0 -2 258 -3 257 -35 0 c-31 0 -35 -3 -38
-27 l-3 -27 -27 29 c-36 39 -69 45 -110 20z m112 -133 c18 -24 21 -43 21 -117
0 -74 -3 -93 -21 -117 -25 -34 -64 -41 -86 -16 -39 45 -50 154 -23 221 28 68
71 79 109 29z"/>
<path d="M6490 1730 l0 -260 35 0 35 0 0 168 c0 139 3 173 18 202 21 43 59 51
88 19 17 -19 19 -39 22 -205 l3 -184 35 0 34 0 0 193 c0 105 -5 209 -10 229
-26 94 -103 127 -162 71 l-28 -27 0 27 c0 24 -4 27 -35 27 l-35 0 0 -260z"/>
<path d="M7490 1970 c0 -15 74 -387 95 -477 5 -20 12 -23 49 -23 37 0 45 3 50
23 16 66 96 462 96 478 0 15 -7 19 -35 19 -40 0 -34 18 -75 -209 -26 -141 -40
-200 -40 -165 0 10 -57 315 -65 352 -4 18 -12 22 -40 22 -28 0 -35 -4 -35 -20z"/>
<path d="M8390 1730 l0 -260 35 0 35 0 0 260 0 260 -35 0 -35 0 0 -260z"/>
<path d="M10756 1958 c4 -18 28 -134 53 -258 l47 -225 45 -3 45 -3 52 248 c29
136 52 254 52 261 0 9 -12 12 -37 10 l-38 -3 -34 -187 c-19 -103 -37 -186 -39
-183 -3 3 -33 156 -66 338 -7 36 -8 37 -47 37 l-41 0 8 -32z"/>
<path d="M11097 1983 c-4 -3 -7 -120 -7 -260 l0 -253 40 0 40 0 0 260 0 260
-33 0 c-19 0 -37 -3 -40 -7z"/>
<path d="M11240 1730 l0 -260 34 0 34 0 3 163 c4 178 14 210 64 223 23 6 25
10 25 70 0 76 -14 83 -61 32 l-29 -32 0 32 c0 30 -2 32 -35 32 l-35 0 0 -260z"/>
<path d="M14502 1778 c3 -192 5 -216 23 -247 45 -76 100 -88 151 -34 l24 26 0
-27 c0 -23 4 -26 35 -26 l35 0 0 260 0 260 -35 0 -35 0 0 -172 c0 -182 -6
-208 -46 -235 -20 -13 -25 -11 -50 11 l-29 24 -3 186 -4 186 -35 0 -34 0 3
-212z"/>
<path d="M15690 1730 l0 -260 35 0 35 0 0 260 0 260 -35 0 -35 0 0 -260z"/>
<path d="M16897 1984 c-4 -4 -7 -121 -7 -261 l0 -253 40 0 40 0 -2 258 -3 257
-30 3 c-17 2 -34 0 -38 -4z"/>
<path d="M17185 1977 c-3 -7 -4 -123 -3 -257 l3 -245 38 -3 37 -3 0 260 0 261
-35 0 c-20 0 -38 -6 -40 -13z"/>
<path d="M17500 1985 c0 -2 25 -111 55 -241 30 -131 55 -249 55 -263 0 -14
-13 -76 -29 -138 -16 -62 -26 -115 -23 -118 3 -3 20 -5 38 -5 22 0 34 5 38 18
6 22 176 742 176 748 0 2 -18 4 -40 4 -22 0 -40 -3 -40 -8 0 -12 -70 -335 -74
-339 -1 -2 -18 70 -36 159 -18 90 -35 169 -37 176 -5 11 -83 18 -83 7z"/>
</g>
</svg>
